# xmcd
#
# Track frame offsets:
#       150
#       17949
#       50394
#       75589
#       96859
#       116784
#       155089
#       177720
#
# Disc length: 2700 seconds
#
# Revision: 0
# Processed by: cddbd v1.4PL0 Copyright (c) Steve Scherf et al.
# Submitted via: WhereIsIt 3.50
#
DISCID=680a8a08
DTITLE=Eric Clapton - Just One Night [CD1]
DYEAR=1980
DGENRE=Blues
TTITLE0=Tulsa Time
TTITLE1=Early In The Morning
TTITLE2=Lay Down Sally
TTITLE3=Wonderful Tonight
TTITLE4=If I Don't Be There By Morning
TTITLE5=Worried Life Blues
TTITLE6=All Our Past Times
TTITLE7=After Midnight
EXTD=
EXTT0=
EXTT1=
EXTT2=
EXTT3=
EXTT4=
EXTT5=
EXTT6=
EXTT7=
PLAYORDER=
